<svg xmlns="http://www.w3.org/2000/svg" viewBox="0 0 2155.35 465.21"><defs><style>.a{fill:#e52427;}.b{fill:#fff;}</style></defs><title>taolingo_dark_4</title><path class="a" d="M1942.67,165.14a17.43,17.43,0,1,0-17.43,17.43A17.44,17.44,0,0,0,1942.67,165.14Z"/><path class="a" d="M2008.1,165.14a17.42,17.42,0,1,0-17.42,17.43A17.44,17.44,0,0,0,2008.1,165.14Z"/><path class="a" d="M2073.53,165.14a17.43,17.43,0,1,0-17.43,17.43A17.44,17.44,0,0,0,2073.53,165.14Z"/><rect class="a" x="1704.29" y="145.07" width="136.61" height="45.29"/><path class="a" d="M1098.36,279.52v51.33h-191V4.53h54.94v275Z"/><path class="a" d="M1140.22,4.53h54.93V330.85h-54.93Z"/><path class="a" d="M1471.14,330.85Q1456.3,304,1438,273.16T1400.07,211q-19.62-31.32-39.9-60.75t-38.58-53V330.85h-54.07V4.53h44.91q17.43,19.77,37.5,46.85t40.33,56.27q20.27,29.21,39.24,58.62t33.79,54.86V4.53h54.5V330.85Z"/><path class="a" d="M683.35,0a165,165,0,1,0,165,165A165,165,0,0,0,683.35,0Zm-.5,283a117.5,117.5,0,1,1,117.5-117.5A117.5,117.5,0,0,1,682.85,283Z"/><path class="a" d="M1990.35,0a165,165,0,1,0,165,165A165,165,0,0,0,1990.35,0Zm107.87,289.27-49.45-21.52a117.55,117.55,0,1,1,38.81-35.54Z"/><path class="a" d="M241.11,6.06V57.38H148.24v275H92.87v-275H0V6.06Z"/><path class="a" d="M459.11,332.38q-6.12-19.31-12.68-38.14t-12.67-38.62H306.13Q300,275.4,293.67,294.47t-12.45,37.91H224.09q17-52.28,32.24-96.53T286.17,152q14.59-39.56,29-75.34T344.76,6.06h52.45q15.26,34.85,29.64,70.63t29,75.34q14.61,39.56,30.09,83.82t32.48,96.53ZM370,69.16q-10,25-22.89,60.74t-26.82,77.69h99.41q-13.95-41.9-27-78.16T370,69.16Z"/><path class="a" d="M1826.33,163.55c0,.65,0,1.3,0,1.95A117,117,0,0,1,1806,231.56c-9.7,12.71-22.16,24.62-38.1,35.53a117.62,117.62,0,0,1-117.92.13l-49.6,21.59,10-53.71.79-4.21A117.5,117.5,0,0,1,1784.5,75.6s2.79,2.84,2.89,3,31.55-36,31.55-36l-.82-.72,0,0h0A165,165,0,1,0,1873.35,165Z"/><path class="b" d="M734.26,371.25v39c0,14.67-.25,26.74-1,39.09l.25.14c4.32-9.61,9.65-19.62,15.88-30.59l27.68-47.6h11.05V463.7H777.7V424.33c0-14.95.12-25.92,1-37.58l-.38-.13c-4.19,10.15-10,20.84-15.87,31.13l-26.8,45.95H723.85V371.25Z"/><path class="b" d="M804.11,376.74a38.5,38.5,0,0,1,22.61-7c14.86,0,25.14,8.37,25.14,22.64a22.85,22.85,0,0,1-17.65,22.49v.28C846.28,416.52,855,425,855,438.33c0,19.2-15.37,26.88-31,26.88-7.74,0-15.87-1.78-22.35-6l2.92-9.32a39.18,39.18,0,0,0,19.18,5.62c12.7,0,19.68-7.41,19.68-17.56,0-13.85-12.32-17.83-23.24-17.83h-5.08V411h5.08c11.3,0,20.07-7.54,20.07-17,0-9.32-6.1-14.54-15.37-14.54-6.48,0-13.21,2.88-17.78,6Z"/><path class="b" d="M871.3,371.25l17,39.37c2.16,5.49,4.19,10.83,6.23,16.32h.25c1.52-4.8,3.18-10.15,5.33-16.73l13.34-39h11.68l-17.9,47.46c-4.7,12.35-10,26.47-16,35.11-5.58,7.55-11.81,11.39-19.43,11.39a18,18,0,0,1-6.22-.82l1.14-9.74a14.62,14.62,0,0,0,4.07.41c8.89-.14,14.09-9.33,16.76-15.91.89-2.06.64-3.43-.38-5.63l-28.45-62.27Z"/><path class="b" d="M944.7,371.25v29.36c0,12.61,6.1,19.75,18.16,19.75a31.9,31.9,0,0,0,16.89-5.21v-43.9h11.18V463.7H979.75V424.47h-.25a38.94,38.94,0,0,1-20.58,5.76c-11.3,0-25.27-5.21-25.27-27.84V371.25Z"/><path class="b" d="M1054.43,420.36h-33.28v33.33h37.09v10H1010.1V371.25h46.23v10h-35.18v29.21h33.28Z"/><path class="b" d="M1083.64,371.25v38.68H1125V371.25h11.17V463.7H1125V420.36h-41.4V463.7h-11.05V371.25Z"/><path class="b" d="M1165.8,371.25v39c0,14.67-.25,26.74-1,39.09l.25.14c4.32-9.61,9.65-19.62,15.88-30.59l27.68-47.6h11.05V463.7h-10.41V424.33c0-14.95.12-25.92,1-37.58l-.38-.13c-4.19,10.15-10,20.84-15.87,31.13l-26.8,45.95h-11.81V371.25Z"/><path class="b" d="M1283.28,420.36H1250v33.33h37.09v10H1239V371.25h46.23v10H1250v29.21h33.28Z"/><path class="b" d="M1347,434.62l-8.89,29.08h-11.43l29.08-92.45h13.34l29.21,92.45h-11.82l-9.14-29.08Zm28.07-9.33-8.39-26.6c-1.9-6-3.17-11.53-4.44-16.88H1362c-1.27,5.49-2.66,11.11-4.31,16.74l-8.39,26.74Z"/><path class="b" d="M1422,371.25v38.68h41.4V371.25h11.18V463.7h-11.18V420.36H1422V463.7h-11V371.25Z"/><path class="b" d="M1539.18,371.25v10h-34.42V463.7h-11V371.25Z"/><path class="b" d="M1601.79,371.25V463.7h-11.18V381.27h-28.32v28c0,20-.76,42.38-12.82,51.16a24.47,24.47,0,0,1-13.08,4.39l-1.4-9.6a19.18,19.18,0,0,0,9-4.94c6.85-7.27,7.49-25.24,7.49-40.05v-39Z"/><path class="b" d="M1631.38,371.25v39c0,14.67-.25,26.74-1,39.09l.26.14c4.32-9.61,9.65-19.62,15.87-30.59l27.69-47.6h11V463.7h-10.42V424.33c0-14.95.13-25.92,1-37.58l-.38-.13c-4.19,10.15-10,20.84-15.88,31.13l-26.79,45.95H1621V371.25Z"/><path class="b" d="M1714.94,371.25v39c0,14.67-.25,26.74-1,39.09l.25.14c4.32-9.61,9.66-19.62,15.88-30.59l27.68-47.6h11V463.7h-10.41V424.33c0-14.95.13-25.92,1-37.58l-.39-.13c-4.19,10.15-10,20.84-15.87,31.13l-26.8,45.95h-11.81V371.25Zm14-19.34c.5,4.26,1.77,8.51,7.74,8.51s7.24-4,7.75-8.51h8.51c-.64,9.06-5.72,14.68-16.51,14.68-10.42,0-15.37-5.62-16-14.68Z"/><path class="b" d="M1847.91,460.68c-4.06,2.2-12.19,4.39-22.6,4.39-24.13,0-42.29-16.46-42.29-46.77,0-28.94,18.16-48.56,44.7-48.56,10.67,0,17.4,2.47,20.32,4.12l-2.67,9.74a37.66,37.66,0,0,0-17.27-3.84c-20.07,0-33.4,13.85-33.4,38.13,0,22.63,12.06,37.17,32.89,37.17,6.73,0,13.59-1.51,18-3.84Z"/><path class="b" d="M1872.68,371.25v41h3.42l29.34-41h13.34l-32.39,42.39c14.1,2.05,19.56,11.38,24,23.86,3.17,9.47,5.58,18,9.39,26.2h-11.94c-3-6.31-5.46-14.54-7.74-21.81-3.94-12.21-9.4-20.57-23.88-20.57h-3.55V463.7h-10.93V371.25Z"/><path class="b" d="M2001.33,416.52c0,31.82-17.91,48.69-39.76,48.69-22.6,0-38.48-18.93-38.48-46.91,0-29.35,16.89-48.56,39.75-48.56C1986.21,369.74,2001.33,389.08,2001.33,416.52ZM1934.9,418c0,19.75,9.91,37.44,27.31,37.44s27.43-17.42,27.43-38.4c0-18.38-8.89-37.59-27.3-37.59S1934.9,397.73,1934.9,418Z"/><path class="b" d="M2061.14,371.25v10h-34.41V463.7h-11V371.25Z"/><path class="b" d="M2139.38,416.52c0,31.82-17.91,48.69-39.76,48.69-22.6,0-38.48-18.93-38.48-46.91,0-29.35,16.89-48.56,39.75-48.56C2124.26,369.74,2139.38,389.08,2139.38,416.52ZM2073,418c0,19.75,9.91,37.44,27.31,37.44s27.43-17.42,27.43-38.4c0-18.38-8.89-37.59-27.3-37.59S2073,397.73,2073,418Z"/></svg>