<svg xmlns="http://www.w3.org/2000/svg" viewBox="0 0 2155.35 480.77"><defs><style>.a{fill:#e52427;}.b{fill:#1d1d1b;}</style></defs><title>taolingo_white_3</title><path class="a" d="M1942.67,165.14a17.43,17.43,0,1,0-17.43,17.43A17.44,17.44,0,0,0,1942.67,165.14Z"/><path class="a" d="M2008.1,165.14a17.42,17.42,0,1,0-17.42,17.43A17.44,17.44,0,0,0,2008.1,165.14Z"/><path class="a" d="M2073.53,165.14a17.43,17.43,0,1,0-17.43,17.43A17.44,17.44,0,0,0,2073.53,165.14Z"/><rect class="a" x="1704.28" y="145.07" width="136.61" height="45.29"/><path class="a" d="M1098.36,279.52v51.33h-191V4.53h54.94v275Z"/><path class="a" d="M1140.22,4.53h54.93V330.85h-54.93Z"/><path class="a" d="M1471.14,330.85Q1456.3,304,1438,273.16T1400.07,211q-19.62-31.32-39.9-60.75t-38.58-53V330.85h-54.06V4.53h44.9q17.43,19.77,37.5,46.85t40.33,56.27q20.28,29.21,39.24,58.62t33.79,54.86V4.53h54.5V330.85Z"/><path class="a" d="M683.35,0a165,165,0,1,0,165,165A165,165,0,0,0,683.35,0Zm-.5,283a117.5,117.5,0,1,1,117.5-117.5A117.5,117.5,0,0,1,682.85,283Z"/><path class="a" d="M1990.35,0a165,165,0,1,0,165,165A165,165,0,0,0,1990.35,0Zm107.87,289.27-49.45-21.52a117.55,117.55,0,1,1,38.81-35.54Z"/><path class="a" d="M241.11,6.06V57.38H148.24v275H92.87v-275H0V6.06Z"/><path class="a" d="M459.11,332.38q-6.12-19.31-12.68-38.14t-12.67-38.62H306.13Q300,275.4,293.67,294.47t-12.45,37.91H224.09q17-52.28,32.24-96.53T286.17,152q14.59-39.56,29-75.34T344.76,6.06h52.45q15.26,34.85,29.64,70.63t29,75.34q14.61,39.56,30.09,83.82t32.48,96.53ZM370,69.16q-10,25-22.89,60.74t-26.82,77.69h99.41q-13.95-41.9-27-78.16T370,69.16Z"/><path class="a" d="M1826.33,163.55c0,.65,0,1.3,0,1.95A117,117,0,0,1,1806,231.56c-9.7,12.71-22.16,24.62-38.11,35.53a117.6,117.6,0,0,1-117.91.13l-49.6,21.59,10-53.71.78-4.21A117.5,117.5,0,0,1,1784.5,75.6s2.79,2.84,2.88,3,31.56-36,31.56-36l-.82-.72,0,0h0A165,165,0,1,0,1873.35,165Z"/><path class="b" d="M746.23,387.56V426.2c0,14.56-.25,26.54-1,38.79l.25.13c4.28-9.52,9.57-19.46,15.75-30.34l27.47-47.22h11v91.71H789.33v-39c0-14.83.12-25.72,1-37.29l-.38-.13c-4.16,10.07-10,20.68-15.75,30.89l-26.59,45.58H735.9V387.56Z"/><path class="b" d="M815.53,393A38.25,38.25,0,0,1,838,386.06c14.74,0,24.95,8.3,24.95,22.45a22.67,22.67,0,0,1-17.52,22.32v.27c12,1.36,20.67,9.8,20.67,23,0,19-15.25,26.67-30.75,26.67-7.68,0-15.75-1.77-22.17-6l2.9-9.25a38.82,38.82,0,0,0,19,5.58c12.6,0,19.53-7.35,19.53-17.42,0-13.74-12.22-17.69-23.06-17.69h-5v-9h5c11.22,0,19.91-7.49,19.91-16.87s-6.05-14.43-15.24-14.43c-6.43,0-13.11,2.86-17.65,6Z"/><path class="b" d="M882.18,387.56l16.89,39.05c2.14,5.44,4.16,10.75,6.17,16.19h.26c1.51-4.76,3.15-10.07,5.29-16.6L924,387.56h11.59l-17.77,47.08c-4.66,12.25-10,26.26-15.87,34.84-5.55,7.48-11.72,11.29-19.28,11.29a17.54,17.54,0,0,1-6.18-.82l1.14-9.66a14.34,14.34,0,0,0,4,.41c8.82-.14,14-9.25,16.63-15.79.89-2,.63-3.4-.37-5.57l-28.23-61.78Z"/><path class="b" d="M955,387.56v29.12c0,12.52,6,19.59,18,19.59a31.57,31.57,0,0,0,16.76-5.17V387.56h11.09v91.71H989.79V440.36h-.25a38.72,38.72,0,0,1-20.41,5.71c-11.22,0-25.08-5.17-25.08-27.62V387.56Z"/><path class="b" d="M1063.88,436.27h-33v33.07h36.8v9.93H1019.9V387.56h45.87v9.93h-34.91v29h33Z"/><path class="b" d="M1092.85,387.56v38.37h41.08V387.56H1145v91.71h-11.09v-43h-41.08v43h-11V387.56Z"/><path class="b" d="M1174.37,387.56V426.2c0,14.56-.25,26.54-1,38.79l.25.13c4.28-9.52,9.57-19.46,15.75-30.34l27.47-47.22h11v91.71h-10.33v-39c0-14.83.12-25.72,1-37.29l-.38-.13c-4.16,10.07-10,20.68-15.75,30.89l-26.59,45.58H1164V387.56Z"/><path class="b" d="M1290.92,436.27h-33v33.07h36.79v9.93H1247V387.56h45.86v9.93h-34.9v29h33Z"/><path class="b" d="M1354.17,450.42l-8.82,28.85H1334l28.86-91.71h13.23l29,91.71h-11.72l-9.07-28.85Zm27.85-9.25-8.32-26.4c-1.89-6-3.15-11.43-4.41-16.74H1369c-1.26,5.45-2.64,11-4.28,16.61l-8.32,26.53Z"/><path class="b" d="M1428.51,387.56v38.37h41.08V387.56h11.09v91.71h-11.09v-43h-41.08v43h-11V387.56Z"/><path class="b" d="M1544.81,387.56v9.93h-34.15v81.78h-11V387.56Z"/><path class="b" d="M1606.93,387.56v91.71h-11.09V397.49h-28.1v27.76c0,19.87-.75,42.05-12.72,50.76a24.3,24.3,0,0,1-13,4.35l-1.39-9.52a19,19,0,0,0,8.95-4.9c6.8-7.21,7.43-25,7.43-39.74V387.56Z"/><path class="b" d="M1636.29,387.56V426.2c0,14.56-.26,26.54-1,38.79l.25.13c4.28-9.52,9.58-19.46,15.75-30.34l27.47-47.22h11v91.71h-10.33v-39c0-14.83.13-25.72,1-37.29l-.38-.13c-4.16,10.07-10,20.68-15.75,30.89l-26.59,45.58H1626V387.56Z"/><path class="b" d="M1719.19,387.56V426.2c0,14.56-.25,26.54-1,38.79l.26.13c4.28-9.52,9.57-19.46,15.75-30.34l27.47-47.22h11v91.71h-10.33v-39c0-14.83.12-25.72,1-37.29l-.37-.13c-4.16,10.07-10,20.68-15.75,30.89l-26.59,45.58h-11.72V387.56Zm13.86-19.19c.51,4.22,1.77,8.44,7.69,8.44s7.18-3.95,7.69-8.44h8.44c-.63,9-5.67,14.56-16.38,14.56-10.33,0-15.25-5.58-15.88-14.56Z"/><path class="b" d="M1851.12,476.28c-4,2.18-12.1,4.35-22.43,4.35-23.94,0-42-16.33-42-46.4,0-28.71,18-48.17,44.35-48.17,10.59,0,17.26,2.45,20.16,4.08l-2.65,9.66a37.5,37.5,0,0,0-17.13-3.81c-19.91,0-33.14,13.75-33.14,37.83,0,22.46,12,36.88,32.63,36.88,6.68,0,13.49-1.5,17.9-3.81Z"/><path class="b" d="M1875.68,387.56v40.68h3.4l29.11-40.68h13.23l-32.13,42.05c14,2,19.4,11.29,23.81,23.67,3.15,9.39,5.55,17.83,9.33,26h-11.85c-3-6.26-5.41-14.42-7.68-21.63-3.91-12.11-9.33-20.41-23.69-20.41h-3.53v42h-10.84V387.56Z"/><path class="b" d="M2003.32,432.46c0,31.57-17.77,48.31-39.44,48.31-22.43,0-38.18-18.78-38.18-46.54,0-29.12,16.76-48.17,39.44-48.17C1988.33,386.06,2003.32,405.25,2003.32,432.46Zm-65.9,1.5c0,19.59,9.83,37.15,27.09,37.15s27.22-17.28,27.22-38.1c0-18.24-8.82-37.29-27.09-37.29S1937.42,413.82,1937.42,434Z"/><path class="b" d="M2062.67,387.56v9.93h-34.15v81.78h-11V387.56Z"/><path class="b" d="M2140.28,432.46c0,31.57-17.76,48.31-39.44,48.31-22.42,0-38.18-18.78-38.18-46.54,0-29.12,16.76-48.17,39.44-48.17C2125.29,386.06,2140.28,405.25,2140.28,432.46Zm-65.9,1.5c0,19.59,9.83,37.15,27.09,37.15s27.22-17.28,27.22-38.1c0-18.24-8.82-37.29-27.09-37.29S2074.38,413.82,2074.38,434Z"/></svg>